<?xml version="1.0" encoding="UTF-8" standalone="no"?>
<!DOCTYPE svg PUBLIC "-//W3C//DTD SVG 1.1//EN" "http://www.w3.org/Graphics/SVG/1.1/DTD/svg11.dtd">
<svg width="100%" height="100%" viewBox="0 0 128 128" version="1.1" xmlns="http://www.w3.org/2000/svg" xmlns:xlink="http://www.w3.org/1999/xlink" xml:space="preserve" xmlns:serif="http://www.serif.com/" style="fill-rule:evenodd;clip-rule:evenodd;stroke-linecap:round;stroke-linejoin:round;stroke-miterlimit:1.5;">
    <g transform="matrix(1.376794,0,0,1.376794,-32.451358,-35.0899)">
        <circle cx="70.055" cy="86.191" r="30.799" style="fill:rgb(166,206,122);stroke:rgb(101,153,62);stroke-width:0.73px;"/>
    </g>
    <g transform="matrix(1.696923,0,0,1.696923,-44.989658,-38.070215)">
        <circle cx="60.886" cy="46.698" r="0.914" style="fill:rgb(217,160,102);"/>
    </g>
    <g transform="matrix(1.696923,0,0,1.696923,-34.198084,-38.070215)">
        <circle cx="60.886" cy="46.698" r="0.914" style="fill:rgb(217,160,102);"/>
    </g>
    <g transform="matrix(1.131282,0,0,1.172931,-9.637306,-19.163832)">
        <path d="M68.293,36.243C70.366,36.601 71.875,38.341 71.875,40.372C71.907,43.331 71.907,47.618 71.907,49.675C71.907,49.991 71.777,50.293 71.546,50.516C71.315,50.739 71.001,50.864 70.674,50.864C68.084,50.864 62.1,50.864 59.51,50.864C59.183,50.864 58.869,50.739 58.638,50.516C58.407,50.293 58.277,49.991 58.277,49.675C58.277,47.618 58.277,43.331 58.277,40.372C58.277,38.325 59.797,36.573 61.885,36.212C63.037,35.977 64.228,35.763 65.092,35.763C65.955,35.763 67.147,35.977 68.293,36.243Z" style="fill:rgb(238,195,154);"/>
    </g>
    <g transform="matrix(0.969614,0,0,1.131282,2.882643,-18.241907)">
        <path d="M60.642,33.187C60.95,33.187 61.244,33.292 61.461,33.478C61.679,33.664 61.801,33.917 61.801,34.18C61.801,35.537 61.801,37.803 61.801,37.803L57.185,37.803L57.185,34.18C57.185,33.917 57.307,33.664 57.524,33.478C57.741,33.292 58.036,33.187 58.343,33.187C58.9,33.187 60.048,33.187 60.642,33.187Z" style="fill:rgb(238,195,154);"/>
    </g>
    <g transform="matrix(0.969614,0,0,1.131282,9.549185,-18.241907)">
        <path d="M60.642,33.187C60.95,33.187 61.244,33.292 61.461,33.478C61.679,33.664 61.801,33.917 61.801,34.18C61.801,35.537 61.801,37.803 61.801,37.803L57.185,37.803L57.185,34.18C57.185,33.917 57.307,33.664 57.524,33.478C57.741,33.292 58.036,33.187 58.343,33.187C59.046,33.187 59.94,33.187 60.642,33.187Z" style="fill:rgb(238,195,154);"/>
    </g>
    <g transform="matrix(1.898788,0,0,1.898788,-56.942326,-48.025853)">
        <circle cx="61.061" cy="40.48" r="0.994" style="fill:rgb(132,126,135);"/>
    </g>
    <g transform="matrix(1.898788,0,0,1.898788,-46.819856,-48.025853)">
        <circle cx="61.061" cy="40.48" r="0.994" style="fill:rgb(132,126,135);"/>
    </g>
    <g transform="matrix(1.131282,0,0,0.505713,-8.402027,9.616929)">
        <path d="M62.944,41.606L64.881,41.606L64,43.548L62.944,41.606Z" style="fill:rgb(217,160,102);stroke:rgb(217,160,102);stroke-width:1.14px;"/>
    </g>
    <g transform="matrix(1.131282,0,0,1.131282,-8.402027,-16.368765)">
        <path d="M63.912,42.817L63.137,44.175" style="fill:none;stroke:rgb(217,160,102);stroke-width:0.88px;"/>
    </g>
    <g transform="matrix(1.131282,0,0,1.131282,-8.402027,-16.368765)">
        <path d="M64,42.916L64.662,44.175" style="fill:none;stroke:rgb(217,160,102);stroke-width:0.88px;"/>
    </g>
    <g transform="matrix(1.696923,0,0,1.696923,-42.578298,-42.281605)">
        <circle cx="60.886" cy="46.698" r="0.914" style="fill:rgb(217,160,102);"/>
    </g>
    <g transform="matrix(1.696923,0,0,1.696923,-36.085249,-42.281605)">
        <circle cx="60.886" cy="46.698" r="0.914" style="fill:rgb(217,160,102);"/>
    </g>
</svg>
